<svg width="68" height="14" viewBox="0 0 68 14" fill="none" xmlns="http://www.w3.org/2000/svg">
<path d="M7.29 10.21H3.42L2.466 13H0L4.536 0.309999H6.354L10.89 13H8.298L7.29 10.21ZM4.05 8.23H6.75L5.814 5.422L5.436 3.442H5.346L4.968 5.44L4.05 8.23ZM13.9784 0.526C14.2544 0.478 14.5484 0.435999 14.8604 0.399999C15.1844 0.351999 15.5024 0.315999 15.8144 0.291999C16.1384 0.268 16.4504 0.25 16.7504 0.237999C17.0504 0.225999 17.3264 0.219999 17.5784 0.219999C18.1664 0.219999 18.7424 0.273999 19.3064 0.381999C19.8824 0.489999 20.3924 0.676 20.8364 0.94C21.2924 1.204 21.6524 1.57 21.9164 2.038C22.1924 2.494 22.3304 3.07 22.3304 3.766C22.3304 4.798 22.0904 5.638 21.6104 6.286C21.1304 6.934 20.4884 7.384 19.6844 7.636L20.5664 8.194L23.4464 13H20.6024L17.7404 8.068L16.4444 7.834V13H13.9784V0.526ZM17.7584 2.416C17.5064 2.416 17.2544 2.422 17.0024 2.434C16.7624 2.446 16.5764 2.47 16.4444 2.506V6.16H17.4884C18.1724 6.16 18.7184 6.004 19.1264 5.692C19.5344 5.38 19.7384 4.864 19.7384 4.144C19.7384 3.604 19.5704 3.184 19.2344 2.884C18.8984 2.572 18.4064 2.416 17.7584 2.416ZM27.0586 0.399999H29.5246V13H27.0586V0.399999ZM39.3754 9.616C39.3754 9.232 39.2314 8.92 38.9434 8.68C38.6674 8.44 38.3134 8.224 37.8814 8.032C37.4614 7.828 36.9994 7.624 36.4954 7.42C36.0034 7.204 35.5414 6.946 35.1094 6.646C34.6894 6.334 34.3354 5.95 34.0474 5.494C33.7714 5.038 33.6334 4.456 33.6334 3.748C33.6334 3.136 33.7354 2.608 33.9394 2.164C34.1434 1.708 34.4314 1.33 34.8034 1.03C35.1874 0.729999 35.6374 0.507999 36.1534 0.364C36.6694 0.219999 37.2454 0.147999 37.8814 0.147999C38.6134 0.147999 39.3034 0.213999 39.9514 0.346C40.5994 0.466 41.1334 0.646 41.5534 0.885999L40.7794 2.956C40.5154 2.788 40.1194 2.638 39.5914 2.506C39.0634 2.362 38.4934 2.29 37.8814 2.29C37.3054 2.29 36.8614 2.404 36.5494 2.632C36.2494 2.86 36.0994 3.166 36.0994 3.55C36.0994 3.91 36.2374 4.21 36.5134 4.45C36.8014 4.69 37.1554 4.912 37.5754 5.116C38.0074 5.32 38.4694 5.53 38.9614 5.746C39.4654 5.962 39.9274 6.226 40.3474 6.538C40.7794 6.838 41.1334 7.216 41.4094 7.672C41.6974 8.116 41.8414 8.674 41.8414 9.346C41.8414 10.018 41.7274 10.6 41.4994 11.092C41.2834 11.572 40.9714 11.974 40.5634 12.298C40.1674 12.622 39.6814 12.862 39.1054 13.018C38.5414 13.174 37.9174 13.252 37.2334 13.252C36.3334 13.252 35.5414 13.168 34.8574 13C34.1734 12.832 33.6694 12.664 33.3454 12.496L34.1374 10.39C34.2694 10.462 34.4374 10.54 34.6414 10.624C34.8574 10.708 35.0974 10.786 35.3614 10.858C35.6254 10.93 35.9014 10.99 36.1894 11.038C36.4894 11.086 36.7954 11.11 37.1074 11.11C37.8394 11.11 38.3974 10.99 38.7814 10.75C39.1774 10.498 39.3754 10.12 39.3754 9.616ZM54.4303 2.596H50.7583V13H48.2923V2.596H44.6023V0.399999H54.4303V2.596ZM56.6156 6.7C56.6156 4.6 57.0776 2.986 58.0016 1.858C58.9256 0.717999 60.2456 0.147999 61.9616 0.147999C62.8616 0.147999 63.6476 0.303999 64.3196 0.616C64.9916 0.927999 65.5496 1.372 65.9936 1.948C66.4376 2.524 66.7676 3.214 66.9836 4.018C67.1996 4.822 67.3076 5.716 67.3076 6.7C67.3076 8.8 66.8396 10.42 65.9036 11.56C64.9796 12.688 63.6656 13.252 61.9616 13.252C61.0496 13.252 60.2576 13.096 59.5856 12.784C58.9136 12.472 58.3556 12.028 57.9116 11.452C57.4796 10.876 57.1556 10.186 56.9396 9.382C56.7236 8.578 56.6156 7.684 56.6156 6.7ZM59.2076 6.7C59.2076 7.336 59.2616 7.924 59.3696 8.464C59.4776 8.992 59.6396 9.448 59.8556 9.832C60.0836 10.216 60.3716 10.516 60.7196 10.732C61.0676 10.948 61.4816 11.056 61.9616 11.056C62.8376 11.056 63.5156 10.714 63.9956 10.03C64.4756 9.346 64.7156 8.236 64.7156 6.7C64.7156 6.088 64.6616 5.518 64.5536 4.99C64.4576 4.462 64.3016 4 64.0856 3.604C63.8696 3.208 63.5876 2.902 63.2396 2.686C62.8916 2.458 62.4656 2.344 61.9616 2.344C61.0856 2.344 60.4076 2.698 59.9276 3.406C59.4476 4.102 59.2076 5.2 59.2076 6.7Z" fill="white"/>
</svg>
