<svg width="90" height="79" viewBox="0 0 90 79" fill="none" xmlns="http://www.w3.org/2000/svg">
<path fill-rule="evenodd" clip-rule="evenodd" d="M80.42 54.6104C74.3371 68.4565 60.5012 78.1309 44.4025 78.1309C23.3382 78.1309 6.14248 61.5679 5.12812 40.7551L2.59216 43.7798C2.07148 44.4008 1.14595 44.4821 0.524933 43.9615C-0.0960846 43.4408 -0.177422 42.5152 0.343262 41.8942L6.52104 34.5259L13.7529 41.2685C14.3456 41.8211 14.3781 42.7497 13.8255 43.3424C13.2729 43.9352 12.3443 43.9677 11.7516 43.415L8.03307 39.9481C8.63482 59.5171 24.6876 75.1961 44.4025 75.1961C59.2953 75.1961 72.1016 66.2487 77.733 53.43C78.059 52.688 78.9247 52.3508 79.6667 52.6768C80.4087 53.0027 80.7459 53.8685 80.42 54.6104ZM48.1142 51.4348H40.5934V57.6086H36.3054V51.4348H31.6582V47.8876H36.3054V44.8119H31.6582V41.2872H36.3054V24.921H48.3611C51.8634 24.921 54.6397 25.8115 56.6902 27.5926C58.7406 29.3736 59.7659 31.7833 59.7659 34.8216C59.7659 38.0095 58.778 40.4716 56.8024 42.2077C54.8418 43.9289 52.0505 44.797 48.4285 44.8119H40.5934V47.8876H48.1142V51.4348ZM40.5934 41.2872H48.3611C50.681 41.2872 52.4471 40.741 53.6594 39.6484C54.8717 38.5558 55.4779 36.9618 55.4779 34.8665C55.4779 32.9657 54.8493 31.4316 53.592 30.2641C52.3348 29.0818 50.6361 28.4831 48.4958 28.4681H40.5934V41.2872ZM8.38649 23.8583C14.4693 10.0122 28.3053 0.33786 44.404 0.33786C65.5499 0.33786 82.7973 17.0295 83.6894 37.9559L86.9351 34.3996C87.4814 33.801 88.4095 33.7586 89.0081 34.3049C89.6067 34.8513 89.6491 35.7794 89.1028 36.378L82.3169 43.8132L74.3633 37.5308C73.7273 37.0285 73.619 36.1057 74.1213 35.4697C74.6236 34.8338 75.5464 34.7254 76.1824 35.2278L80.7823 38.8612C80.3576 19.1339 64.2331 3.27264 44.404 3.27264C29.5112 3.27264 16.7049 12.22 11.0734 25.0387C10.7474 25.7807 9.88171 26.1179 9.13974 25.7919C8.39777 25.466 8.06053 24.6002 8.38649 23.8583Z" fill="#FB6900"/>
</svg>
