<svg width="145" height="54" viewBox="0 0 145 54" fill="none" xmlns="http://www.w3.org/2000/svg">
<path d="M4.5 6C4.5 5.17157 5.17157 4.5 6 4.5L143 4.5C143.828 4.5 144.5 5.17157 144.5 6V52C144.5 52.8284 143.828 53.5 143 53.5H6C5.17157 53.5 4.5 52.8284 4.5 52V6Z" stroke="#FE5B00"/>
<path d="M0 2C0 0.895432 0.89543 0 2 0L139 0C140.105 0 141 0.895431 141 2V48C141 49.1046 140.105 50 139 50H2C0.895433 50 0 49.1046 0 48L0 2Z" fill="#FF7028"/>
<path d="M15.792 28C15.792 25.968 16.288 24.408 17.28 23.32C18.272 22.216 19.664 21.664 21.456 21.664C22.416 21.664 23.248 21.816 23.952 22.12C24.656 22.424 25.24 22.856 25.704 23.416C26.168 23.96 26.512 24.624 26.736 25.408C26.976 26.192 27.096 27.056 27.096 28C27.096 30.032 26.6 31.6 25.608 32.704C24.632 33.792 23.248 34.336 21.456 34.336C20.496 34.336 19.664 34.184 18.96 33.88C18.256 33.576 17.664 33.152 17.184 32.608C16.72 32.048 16.368 31.376 16.128 30.592C15.904 29.808 15.792 28.944 15.792 28ZM19.008 28C19.008 28.528 19.056 29.016 19.152 29.464C19.248 29.912 19.392 30.304 19.584 30.64C19.776 30.976 20.024 31.24 20.328 31.432C20.648 31.608 21.024 31.696 21.456 31.696C22.272 31.696 22.88 31.4 23.28 30.808C23.68 30.216 23.88 29.28 23.88 28C23.88 26.896 23.696 26.008 23.328 25.336C22.96 24.648 22.336 24.304 21.456 24.304C20.688 24.304 20.088 24.592 19.656 25.168C19.224 25.744 19.008 26.688 19.008 28ZM37.7111 24.76H34.3751V34H31.1591V24.76H27.7271V22H37.7111V24.76ZM56.2798 29.32H53.6398V34H50.7358V29.32H43.4638V27.544L51.0718 17.08H53.6398V26.824H56.2798V29.32ZM50.7358 23.152L50.9518 21.136H50.8558L50.0398 22.864L47.5438 26.104L46.3438 27.016L47.8798 26.824H50.7358V23.152ZM63.7753 22.456C63.7753 21.64 63.8953 20.888 64.1353 20.2C64.3913 19.512 64.7513 18.928 65.2153 18.448C65.6953 17.952 66.2713 17.568 66.9433 17.296C67.6313 17.008 68.4153 16.864 69.2953 16.864C71.1033 16.864 72.5193 17.408 73.5433 18.496C74.5833 19.568 75.1033 21.136 75.1033 23.2C75.1033 25.056 74.8633 26.664 74.3833 28.024C73.9193 29.368 73.2873 30.496 72.4873 31.408C71.7033 32.304 70.7913 32.992 69.7513 33.472C68.7113 33.952 67.6153 34.24 66.4633 34.336L65.7913 31.888C66.6713 31.776 67.4553 31.56 68.1433 31.24C68.8313 30.92 69.4233 30.528 69.9193 30.064C70.4153 29.584 70.8153 29.048 71.1193 28.456C71.4393 27.848 71.6633 27.2 71.7913 26.512C71.4073 26.928 70.9913 27.216 70.5433 27.376C70.1113 27.536 69.5273 27.616 68.7913 27.616C68.1833 27.616 67.5753 27.512 66.9673 27.304C66.3753 27.096 65.8393 26.784 65.3593 26.368C64.8953 25.936 64.5113 25.4 64.2073 24.76C63.9193 24.104 63.7753 23.336 63.7753 22.456ZM66.7993 22.288C66.7993 23.2 67.0553 23.888 67.5673 24.352C68.0793 24.816 68.7193 25.048 69.4873 25.048C70.1433 25.048 70.6793 24.944 71.0953 24.736C71.5113 24.528 71.8313 24.272 72.0553 23.968C72.1033 23.632 72.1273 23.312 72.1273 23.008C72.1273 22.56 72.0713 22.12 71.9593 21.688C71.8473 21.256 71.6713 20.872 71.4313 20.536C71.2073 20.2 70.9113 19.936 70.5433 19.744C70.1913 19.536 69.7673 19.432 69.2713 19.432C68.4873 19.432 67.8793 19.688 67.4473 20.2C67.0153 20.696 66.7993 21.392 66.7993 22.288ZM77.3925 22.456C77.3925 21.64 77.5125 20.888 77.7525 20.2C78.0085 19.512 78.3685 18.928 78.8325 18.448C79.3125 17.952 79.8885 17.568 80.5605 17.296C81.2485 17.008 82.0325 16.864 82.9125 16.864C84.7205 16.864 86.1365 17.408 87.1605 18.496C88.2005 19.568 88.7205 21.136 88.7205 23.2C88.7205 25.056 88.4805 26.664 88.0005 28.024C87.5365 29.368 86.9045 30.496 86.1045 31.408C85.3205 32.304 84.4085 32.992 83.3685 33.472C82.3285 33.952 81.2325 34.24 80.0805 34.336L79.4085 31.888C80.2885 31.776 81.0725 31.56 81.7605 31.24C82.4485 30.92 83.0405 30.528 83.5365 30.064C84.0325 29.584 84.4325 29.048 84.7365 28.456C85.0565 27.848 85.2805 27.2 85.4085 26.512C85.0245 26.928 84.6085 27.216 84.1605 27.376C83.7285 27.536 83.1445 27.616 82.4085 27.616C81.8005 27.616 81.1925 27.512 80.5845 27.304C79.9925 27.096 79.4565 26.784 78.9765 26.368C78.5125 25.936 78.1285 25.4 77.8245 24.76C77.5365 24.104 77.3925 23.336 77.3925 22.456ZM80.4165 22.288C80.4165 23.2 80.6725 23.888 81.1845 24.352C81.6965 24.816 82.3365 25.048 83.1045 25.048C83.7605 25.048 84.2965 24.944 84.7125 24.736C85.1285 24.528 85.4485 24.272 85.6725 23.968C85.7205 23.632 85.7445 23.312 85.7445 23.008C85.7445 22.56 85.6885 22.12 85.5765 21.688C85.4645 21.256 85.2885 20.872 85.0485 20.536C84.8245 20.2 84.5285 19.936 84.1605 19.744C83.8085 19.536 83.3845 19.432 82.8885 19.432C82.1045 19.432 81.4965 19.688 81.0645 20.2C80.6325 20.696 80.4165 21.392 80.4165 22.288ZM90.8897 25.576C90.8897 22.632 91.3937 20.448 92.4017 19.024C93.4097 17.584 94.8577 16.864 96.7457 16.864C98.7617 16.864 100.242 17.576 101.186 19C102.13 20.408 102.602 22.6 102.602 25.576C102.602 28.536 102.09 30.736 101.066 32.176C100.058 33.616 98.6097 34.336 96.7217 34.336C94.7217 34.336 93.2497 33.584 92.3057 32.08C91.3617 30.56 90.8897 28.392 90.8897 25.576ZM94.0097 25.576C94.0097 27.528 94.2177 29.04 94.6337 30.112C95.0657 31.168 95.7697 31.696 96.7457 31.696C97.6897 31.696 98.3777 31.208 98.8097 30.232C99.2577 29.256 99.4817 27.704 99.4817 25.576C99.4817 23.64 99.2737 22.144 98.8577 21.088C98.4417 20.032 97.7297 19.504 96.7217 19.504C95.7617 19.504 95.0657 20 94.6337 20.992C94.2177 21.984 94.0097 23.512 94.0097 25.576ZM110.169 25.264H112.065V17.368C112.737 17.24 113.433 17.144 114.153 17.08C114.873 17 115.633 16.96 116.433 16.96C117.265 16.96 118.065 17.032 118.833 17.176C119.601 17.32 120.273 17.584 120.849 17.968C121.425 18.352 121.881 18.88 122.217 19.552C122.569 20.224 122.745 21.088 122.745 22.144C122.745 23.12 122.569 23.952 122.217 24.64C121.881 25.312 121.425 25.864 120.849 26.296C120.289 26.728 119.649 27.04 118.929 27.232C118.209 27.424 117.473 27.52 116.721 27.52C116.497 27.52 116.209 27.52 115.857 27.52C115.521 27.504 115.265 27.48 115.089 27.448V28.84H118.929V31.024H115.089V34H112.065V31.024H110.169V28.84H112.065V27.448H110.169V25.264ZM116.697 19.6C116.377 19.6 116.073 19.616 115.785 19.648C115.497 19.664 115.265 19.688 115.089 19.72V25.144C115.217 25.176 115.425 25.208 115.713 25.24C116.001 25.256 116.209 25.264 116.337 25.264C116.769 25.264 117.177 25.208 117.561 25.096C117.961 24.984 118.305 24.808 118.593 24.568C118.881 24.328 119.105 24.024 119.265 23.656C119.441 23.272 119.529 22.816 119.529 22.288C119.529 21.312 119.265 20.624 118.737 20.224C118.209 19.808 117.529 19.6 116.697 19.6Z" fill="white"/>
</svg>
